<svg id="visual" viewBox="0 0 900 600" width="900" height="600" xmlns="http://www.w3.org/2000/svg" xmlns:xlink="http://www.w3.org/1999/xlink" version="1.1"><path d="M746 600L728 592.8C710 585.7 674 571.3 666.5 557C659 542.7 680 528.3 695 514C710 499.7 719 485.3 708.5 471.2C698 457 668 443 671 428.8C674 414.7 710 400.3 710 386C710 371.7 674 357.3 668 343C662 328.7 686 314.3 710 300C734 285.7 758 271.3 759.5 257C761 242.7 740 228.3 735.5 214C731 199.7 743 185.3 732.5 171.2C722 157 689 143 690.5 128.8C692 114.7 728 100.3 740 86C752 71.7 740 57.3 735.5 43C731 28.7 734 14.3 735.5 7.2L737 0L900 0L900 7.2C900 14.3 900 28.7 900 43C900 57.3 900 71.7 900 86C900 100.3 900 114.7 900 128.8C900 143 900 157 900 171.2C900 185.3 900 199.7 900 214C900 228.3 900 242.7 900 257C900 271.3 900 285.7 900 300C900 314.3 900 328.7 900 343C900 357.3 900 371.7 900 386C900 400.3 900 414.7 900 428.8C900 443 900 457 900 471.2C900 485.3 900 499.7 900 514C900 528.3 900 542.7 900 557C900 571.3 900 585.7 900 592.8L900 600Z" fill="#000000"></path><path d="M674 600L659 592.8C644 585.7 614 571.3 606.5 557C599 542.7 614 528.3 629 514C644 499.7 659 485.3 648.5 471.2C638 457 602 443 606.5 428.8C611 414.7 656 400.3 660.5 386C665 371.7 629 357.3 621.5 343C614 328.7 635 314.3 656 300C677 285.7 698 271.3 695 257C692 242.7 665 228.3 660.5 214C656 199.7 674 185.3 668 171.2C662 157 632 143 632 128.8C632 114.7 662 100.3 677 86C692 71.7 692 57.3 687.5 43C683 28.7 674 14.3 669.5 7.2L665 0L738 0L736.5 7.2C735 14.3 732 28.7 736.5 43C741 57.3 753 71.7 741 86C729 100.3 693 114.7 691.5 128.8C690 143 723 157 733.5 171.2C744 185.3 732 199.7 736.5 214C741 228.3 762 242.7 760.5 257C759 271.3 735 285.7 711 300C687 314.3 663 328.7 669 343C675 357.3 711 371.7 711 386C711 400.3 675 414.7 672 428.8C669 443 699 457 709.5 471.2C720 485.3 711 499.7 696 514C681 528.3 660 542.7 667.5 557C675 571.3 711 585.7 729 592.8L747 600Z" fill="#000000"></path><path d="M602 600L588.5 592.8C575 585.7 548 571.3 540.5 557C533 542.7 545 528.3 563 514C581 499.7 605 485.3 596 471.2C587 457 545 443 545 428.8C545 414.7 587 400.3 594.5 386C602 371.7 575 357.3 567.5 343C560 328.7 572 314.3 591.5 300C611 285.7 638 271.3 639.5 257C641 242.7 617 228.3 609.5 214C602 199.7 611 185.3 605 171.2C599 157 578 143 579.5 128.8C581 114.7 605 100.3 617 86C629 71.7 629 57.3 627.5 43C626 28.7 623 14.3 621.5 7.2L620 0L666 0L670.5 7.2C675 14.3 684 28.7 688.5 43C693 57.3 693 71.7 678 86C663 100.3 633 114.7 633 128.8C633 143 663 157 669 171.2C675 185.3 657 199.7 661.5 214C666 228.3 693 242.7 696 257C699 271.3 678 285.7 657 300C636 314.3 615 328.7 622.5 343C630 357.3 666 371.7 661.5 386C657 400.3 612 414.7 607.5 428.8C603 443 639 457 649.5 471.2C660 485.3 645 499.7 630 514C615 528.3 600 542.7 607.5 557C615 571.3 645 585.7 660 592.8L675 600Z" fill="#0e0e0e"></path><path d="M548 600L524 592.8C500 585.7 452 571.3 438.5 557C425 542.7 446 528.3 468.5 514C491 499.7 515 485.3 509 471.2C503 457 467 443 462.5 428.8C458 414.7 485 400.3 491 386C497 371.7 482 357.3 482 343C482 328.7 497 314.3 515 300C533 285.7 554 271.3 548 257C542 242.7 509 228.3 498.5 214C488 199.7 500 185.3 497 171.2C494 157 476 143 480.5 128.8C485 114.7 512 100.3 527 86C542 71.7 545 57.3 540.5 43C536 28.7 524 14.3 518 7.2L512 0L621 0L622.5 7.2C624 14.3 627 28.7 628.5 43C630 57.3 630 71.7 618 86C606 100.3 582 114.7 580.5 128.8C579 143 600 157 606 171.2C612 185.3 603 199.7 610.5 214C618 228.3 642 242.7 640.5 257C639 271.3 612 285.7 592.5 300C573 314.3 561 328.7 568.5 343C576 357.3 603 371.7 595.5 386C588 400.3 546 414.7 546 428.8C546 443 588 457 597 471.2C606 485.3 582 499.7 564 514C546 528.3 534 542.7 541.5 557C549 571.3 576 585.7 589.5 592.8L603 600Z" fill="#242424"></path><path d="M503 600L474.5 592.8C446 585.7 389 571.3 368 557C347 542.7 362 528.3 383 514C404 499.7 431 485.3 423.5 471.2C416 457 374 443 374 428.8C374 414.7 416 400.3 429.5 386C443 371.7 428 357.3 428 343C428 328.7 443 314.3 455 300C467 285.7 476 271.3 468.5 257C461 242.7 437 228.3 426.5 214C416 199.7 419 185.3 411.5 171.2C404 157 386 143 389 128.8C392 114.7 416 100.3 431 86C446 71.7 452 57.3 450.5 43C449 28.7 440 14.3 435.5 7.2L431 0L513 0L519 7.2C525 14.3 537 28.7 541.5 43C546 57.3 543 71.7 528 86C513 100.3 486 114.7 481.5 128.8C477 143 495 157 498 171.2C501 185.3 489 199.7 499.5 214C510 228.3 543 242.7 549 257C555 271.3 534 285.7 516 300C498 314.3 483 328.7 483 343C483 357.3 498 371.7 492 386C486 400.3 459 414.7 463.5 428.8C468 443 504 457 510 471.2C516 485.3 492 499.7 469.5 514C447 528.3 426 542.7 439.5 557C453 571.3 501 585.7 525 592.8L549 600Z" fill="#282828"></path><path d="M395 600L369.5 592.8C344 585.7 293 571.3 267.5 557C242 542.7 242 528.3 261.5 514C281 499.7 320 485.3 312.5 471.2C305 457 251 443 245 428.8C239 414.7 281 400.3 296 386C311 371.7 299 357.3 306.5 343C314 328.7 341 314.3 350 300C359 285.7 350 271.3 332 257C314 242.7 287 228.3 284 214C281 199.7 302 185.3 305 171.2C308 157 293 143 290 128.8C287 114.7 296 100.3 299 86C302 71.7 299 57.3 297.5 43C296 28.7 296 14.3 296 7.2L296 0L432 0L436.5 7.2C441 14.3 450 28.7 451.5 43C453 57.3 447 71.7 432 86C417 100.3 393 114.7 390 128.8C387 143 405 157 412.5 171.2C420 185.3 417 199.7 427.5 214C438 228.3 462 242.7 469.5 257C477 271.3 468 285.7 456 300C444 314.3 429 328.7 429 343C429 357.3 444 371.7 430.5 386C417 400.3 375 414.7 375 428.8C375 443 417 457 424.5 471.2C432 485.3 405 499.7 384 514C363 528.3 348 542.7 369 557C390 571.3 447 585.7 475.5 592.8L504 600Z" fill="#242424"></path><path d="M368 600L338 592.8C308 585.7 248 571.3 222.5 557C197 542.7 206 528.3 228.5 514C251 499.7 287 485.3 279.5 471.2C272 457 221 443 213.5 428.8C206 414.7 242 400.3 251 386C260 371.7 242 357.3 252.5 343C263 328.7 302 314.3 315.5 300C329 285.7 317 271.3 299 257C281 242.7 257 228.3 251 214C245 199.7 257 185.3 255.5 171.2C254 157 239 143 237.5 128.8C236 114.7 248 100.3 254 86C260 71.7 260 57.3 260 43C260 28.7 260 14.3 260 7.2L260 0L297 0L297 7.2C297 14.3 297 28.7 298.5 43C300 57.3 303 71.7 300 86C297 100.3 288 114.7 291 128.8C294 143 309 157 306 171.2C303 185.3 282 199.7 285 214C288 228.3 315 242.7 333 257C351 271.3 360 285.7 351 300C342 314.3 315 328.7 307.5 343C300 357.3 312 371.7 297 386C282 400.3 240 414.7 246 428.8C252 443 306 457 313.5 471.2C321 485.3 282 499.7 262.5 514C243 528.3 243 542.7 268.5 557C294 571.3 345 585.7 370.5 592.8L396 600Z" fill="#0e0e0e"></path><path d="M314 600L284 592.8C254 585.7 194 571.3 167 557C140 542.7 146 528.3 170 514C194 499.7 236 485.3 230 471.2C224 457 170 443 155 428.8C140 414.7 164 400.3 176 386C188 371.7 188 357.3 200 343C212 328.7 236 314.3 240.5 300C245 285.7 230 271.3 212 257C194 242.7 173 228.3 167 214C161 199.7 170 185.3 171.5 171.2C173 157 167 143 167 128.8C167 114.7 173 100.3 174.5 86C176 71.7 173 57.3 177.5 43C182 28.7 194 14.3 200 7.2L206 0L261 0L261 7.2C261 14.3 261 28.7 261 43C261 57.3 261 71.7 255 86C249 100.3 237 114.7 238.5 128.8C240 143 255 157 256.5 171.2C258 185.3 246 199.7 252 214C258 228.3 282 242.7 300 257C318 271.3 330 285.7 316.5 300C303 314.3 264 328.7 253.5 343C243 357.3 261 371.7 252 386C243 400.3 207 414.7 214.5 428.8C222 443 273 457 280.5 471.2C288 485.3 252 499.7 229.5 514C207 528.3 198 542.7 223.5 557C249 571.3 309 585.7 339 592.8L369 600Z" fill="#000000"></path><path d="M0 600L0 592.8C0 585.7 0 571.3 0 557C0 542.7 0 528.3 0 514C0 499.7 0 485.3 0 471.2C0 457 0 443 0 428.8C0 414.7 0 400.3 0 386C0 371.7 0 357.3 0 343C0 328.7 0 314.3 0 300C0 285.7 0 271.3 0 257C0 242.7 0 228.3 0 214C0 199.7 0 185.3 0 171.2C0 157 0 143 0 128.8C0 114.7 0 100.3 0 86C0 71.7 0 57.3 0 43C0 28.7 0 14.3 0 7.2L0 0L207 0L201 7.2C195 14.3 183 28.7 178.5 43C174 57.3 177 71.7 175.5 86C174 100.3 168 114.7 168 128.8C168 143 174 157 172.5 171.2C171 185.3 162 199.7 168 214C174 228.3 195 242.7 213 257C231 271.3 246 285.7 241.5 300C237 314.3 213 328.7 201 343C189 357.3 189 371.7 177 386C165 400.3 141 414.7 156 428.8C171 443 225 457 231 471.2C237 485.3 195 499.7 171 514C147 528.3 141 542.7 168 557C195 571.3 255 585.7 285 592.8L315 600Z" fill="#000000"></path></svg>